<svg width="64" height="64" fill="none" xmlns="http://www.w3.org/2000/svg"><path d="M40.187 5.333H23.813c-14.933 0-18.48 3.547-18.48 18.48v16.374c0 14.933 3.547 18.48 18.48 18.48h16.374c14.933 0 18.48-3.547 18.48-18.48V23.813c0-14.933-3.547-18.48-18.48-18.48zM48.4 43.387h-3.893c-1.467 0-1.92-1.2-4.507-3.84-2.347-2.214-3.36-2.534-3.92-2.534-.773 0-1.013.214-1.013 1.334v3.493c0 .933-.294 1.52-2.774 1.52-4.106 0-8.666-2.507-11.866-7.12-4.827-6.773-6.134-11.893-6.134-12.907 0-.56.187-1.093 1.307-1.093h3.92c.987 0 1.36.427 1.733 1.493 1.92 5.6 5.12 10.4 6.427 10.4.507 0 .72-.24.72-1.466v-5.734c-.133-2.613-1.547-2.853-1.547-3.786 0-.48.374-.907.987-.907h6.107c.826 0 1.12.427 1.12 1.44v7.707c0 .826.346 1.12.613 1.12.48 0 .907-.294 1.787-1.2 2.8-3.12 4.8-7.947 4.8-7.947.266-.56.693-1.093 1.733-1.093h3.813c1.174 0 1.44.613 1.174 1.44-.48 2.266-5.227 8.96-5.174 8.96-.426.666-.586.96 0 1.733.4.56 1.76 1.733 2.667 2.773 1.653 1.894 2.933 3.467 3.28 4.56.293 1.094-.24 1.654-1.36 1.654z" fill="#F9F3EA"/></svg>