<svg width="64" height="64" fill="none" xmlns="http://www.w3.org/2000/svg"><path d="M32.016 50.699h-.053c-.166 0-16.707-.032-20.88-1.166a6.667 6.667 0 01-4.704-4.706A70.652 70.652 0 015.296 32a71.056 71.056 0 011.112-12.845 6.837 6.837 0 014.71-4.755c4.058-1.067 20.143-1.067 20.826-1.067H32c.168 0 16.752.032 20.883 1.166A6.676 6.676 0 0157.58 19.2a67.313 67.313 0 011.086 12.883 70.85 70.85 0 01-1.115 12.829 6.694 6.694 0 01-4.712 4.701c-4.052 1.075-20.14 1.087-20.823 1.087zm-5.333-26.686l-.014 16 13.899-8-13.885-8z" fill="#F9F3EA"/></svg>